<svg xmlns="http://www.w3.org/2000/svg" width="22.511" height="14.108" viewBox="0 0 22.511 14.108"><defs><style>.a{fill:#2fc7cc;}</style></defs><g transform="translate(0 0)"><path class="a" d="M22.063,90.455H.448A.442.442,0,0,0,0,90.89v11.45a2.262,2.262,0,0,0,2.294,2.223H20.218a2.262,2.262,0,0,0,2.294-2.223V90.89A.442.442,0,0,0,22.063,90.455Zm-.448,11.885a1.377,1.377,0,0,1-1.4,1.354H2.294A1.377,1.377,0,0,1,.9,102.34v-10.5l10.075,7.993a.46.46,0,0,0,.568,0l7.8-6.171a.426.426,0,0,0,.064-.611.458.458,0,0,0-.631-.062l-7.512,5.946L1.665,91.324H21.615Z" transform="translate(0 -90.455)"/></g><g transform="translate(19.817 1.434)"><g transform="translate(0 0)"><path class="a" d="M449.667,124.271a.435.435,0,0,0-.612-.062l-.13.106a.435.435,0,1,0,.55.673l.13-.106A.435.435,0,0,0,449.667,124.271Z" transform="translate(-448.765 -124.111)"/></g></g></svg>