<svg xmlns="http://www.w3.org/2000/svg" width="24" height="24" viewBox="0 0 24 24"><defs><style>.a{fill:#2fc7cc;}.b{fill:none;}</style></defs><g transform="translate(-564 -1351)"><g transform="translate(564.855 1351.752)"><path class="a" d="M114.732,97.011H101.755a4.749,4.749,0,0,0-4.744,4.744v12.978a4.749,4.749,0,0,0,4.744,4.744h12.978a4.749,4.749,0,0,0,4.744-4.744V101.755A4.749,4.749,0,0,0,114.732,97.011Zm3.6,17.721a3.606,3.606,0,0,1-3.6,3.6H101.755a3.606,3.606,0,0,1-3.6-3.6V101.755a3.606,3.606,0,0,1,3.6-3.6h12.978a3.606,3.606,0,0,1,3.6,3.6v12.978Z" transform="translate(-97.011 -97.011)"/><g transform="translate(5.689 5.039)"><path class="a" d="M183.609,177.723a5.584,5.584,0,1,0-2.625,5.054.535.535,0,0,0,.1-.832l-.008-.008a.537.537,0,0,0-.666-.072,4.47,4.47,0,0,1-2.414.675,4.5,4.5,0,1,1,4.023-2.4.537.537,0,0,0,.091.634l.008.008a.533.533,0,0,0,.846-.121A5.544,5.544,0,0,0,183.609,177.723Z" transform="translate(-172.463 -172.464)"/></g><path class="a" d="M362.606,78.176a1.453,1.453,0,1,0,1.453,1.453A1.454,1.454,0,0,0,362.606,78.176Zm0,2.245a.792.792,0,1,1,.792-.792A.793.793,0,0,1,362.606,80.421Z" transform="translate(-345.153 -74.976)"/></g><rect class="b" width="24" height="24" transform="translate(564 1351)"/></g></svg>