<svg xmlns="http://www.w3.org/2000/svg" width="24" height="24" viewBox="0 0 24 24"><defs><style>.a{fill:#2fc7cc;}.b{fill:none;}</style></defs><g transform="translate(-443 -1349)"><g transform="translate(443.745 1351.238)"><path class="a" d="M17.872,51.658a1.033,1.033,0,0,1-.61-.2L12.237,47.8a.38.38,0,0,0-.465.013l-2.786,2.28a1.037,1.037,0,0,1-1.649-.5L5.468,43.556l-4.792-1.8a1.045,1.045,0,0,1-.01-1.951l20.515-7.944a1.041,1.041,0,0,1,1.392,1.185L18.891,50.827a1.041,1.041,0,0,1-1.018.831Zm-5.859-4.838a1.276,1.276,0,0,1,.753.245l5.026,3.662a.139.139,0,0,0,.218-.084l3.682-17.776a.135.135,0,0,0-.047-.135.133.133,0,0,0-.139-.024h0L.989,40.653a.14.14,0,0,0,0,.262l5,1.872a.451.451,0,0,1,.272.289L8.2,49.322a.136.136,0,0,0,.093.092.134.134,0,0,0,.127-.026l2.787-2.28A1.277,1.277,0,0,1,12.013,46.819Zm-3.243.324a.684.684,0,0,1-.662-.5L7.1,43.1a1.4,1.4,0,0,1,.605-1.565L17,35.788a.613.613,0,0,1,.737.973l-7.668,7.155a1.149,1.149,0,0,0-.353.684l-.261,1.943a.685.685,0,0,1-.634.6Zm6.218-9.05L8.181,42.3a.489.489,0,0,0-.212.548L8.7,45.421l.127-.942a2.056,2.056,0,0,1,.632-1.225Z" transform="translate(0 -31.796)"/><path class="a" d="M414,253.092a.438.438,0,0,1-.429-.531l.067-.307a.438.438,0,0,1,.857.186l-.067.307A.438.438,0,0,1,414,253.092Z" transform="translate(-394.963 -243.324)"/><path class="a" d="M381.894,304.407a.439.439,0,0,1-.429-.531l1.008-4.643a.438.438,0,1,1,.857.186l-1.008,4.643A.438.438,0,0,1,381.894,304.407Z" transform="translate(-364.581 -287.976)"/></g><rect class="b" width="24" height="24" transform="translate(443 1349)"/></g></svg>